{"title":"Janeane Garofalo _ If You Will  - Live in Seattle (2010) Divx AA","uid":8261402,"size":323901533,"categoryP":"video","categoryS":"movies","magnet":"?xt=urn:btih:2c42ab89f0edb185651361d787cf4245f455ed4a&amp;dn=Janeane+Garofalo+_+If+You+Will++-+Live+in+Seattle+%282010%29+Divx+AA&amp;tr=udp%3A%2F%2Ftracker.openbittorrent.com%3A80&amp;tr=udp%3A%2F%2Fopen.demonii.com%3A1337&amp;tr=udp%3A%2F%2Ftracker.coppersurfer.tk%3A6969&amp;tr=udp%3A%2F%2Fexodus.desync.com%3A6969","seeders":0,"leechers":1,"uploader":"sceneline","files":4,"time":1363389263,"description":"-\n\n      the fast  and The Hottest Private Tracker on the net\n\nPlease Seed back to make the speed Faster!!\n ............ NFO .............\n-Brought to you by simplykaka on\nJaneane Garofalo : If You Will  - Live in Seattle (2010)\n\nGeneral\nComplete name                            : Janeane Garofalo : If You Will  - Live in Seattle (2010) Divx AAC - kaka.avi\nFormat                                   : AVI\nFormat/Info                              : Audio Video Interleave\nFile size                                : 309 MiB\nDuration                                 : 1h 5mn\nOverall bit rate                         : 661 Kbps\n\nVideo\nID                                       : 0\nFormat                                   : MPEG-4 Visual\nFormat profile                           : Simple@L0\nFormat settings, BVOP                    : 2\nFormat settings, QPel                    : No\nFormat settings, GMC                     : No warppoints\nFormat settings, Matrix                  : Default (H.263)\nMuxing mode                              : Packed bitstream\nCodec ID                                 : DIVX\nCodec ID/Info                            : Project Mayo\nCodec ID/Hint                            : DivX 4\nDuration                                 : 1h 5mn\nBit rate                                 : 481 Kbps\nWidth                                    : 640 pixels\nHeight                                   : 480 pixels\nDisplay aspect ratio                     : 4:3\nFrame rate                               : 29.970 fps\nColor space                              : YUV\nChroma subsampling                       : 4:2:0\nBit depth                                : 8 bits\nScan type                                : Progressive\nCompression mode                         : Lossy\nBits/(Pixel*Frame)                       : 0.052\nStream size                              : 225 MiB (73%)\nWriting library                          : XviD 64\n\nAudio\nID                                       : 1\nFormat                                   : AAC\nFormat/Info                              : Advanced Audio Codec\nFormat profile                           : LC\nCodec ID                                 : FF\nDuration                                 : 1h 5mn\nBit rate                                 : 165 Kbps\nChannel(s)                               : 2 channels\nChannel positions                        : Front: L R\nSampling rate                            : 48.0 KHz\nCompression mode                         : Lossy\nStream size                              : 77.3 MiB (25%)\nAlignment                                : Split accross interleaves\nInterleave, duration                     : 21 ms (0.64 video frame)\nInterleave, preload duration             : 388 ms\n\n\nPlease Seed!","torrent":{"xt":"urn:btih:2c42ab89f0edb185651361d787cf4245f455ed4a","amp;dn":"Janeane+Garofalo+_+If+You+Will++-+Live+in+Seattle+%282010%29+Divx+AA","amp;tr":["udp%3A%2F%2Ftracker.openbittorrent.com%3A80","udp%3A%2F%2Fopen.demonii.com%3A1337","udp%3A%2F%2Ftracker.coppersurfer.tk%3A6969","udp%3A%2F%2Fexodus.desync.com%3A6969"],"infoHash":"2c42ab89f0edb185651361d787cf4245f455ed4a","infoHashBuffer":{"type":"Buffer","data":[44,66,171,137,240,237,177,133,101,19,97,215,135,207,66,69,244,85,237,74]},"announce":[],"urlList":[]}}